<?xml version="1.0" standalone="no"?>
<!DOCTYPE svg PUBLIC "-//W3C//DTD SVG 20010904//EN"
 "http://www.w3.org/TR/2001/REC-SVG-20010904/DTD/svg10.dtd">
<svg version="1.0" xmlns="http://www.w3.org/2000/svg"
 width="96.000000pt" height="96.000000pt" viewBox="0 0 96.000000 96.000000"
 preserveAspectRatio="xMidYMid meet">
<metadata>
Created by potrace 1.10, written by Peter Selinger 2001-2011
</metadata>
<g transform="translate(0.000000,96.000000) scale(0.100000,-0.100000)"
fill="#000000" stroke="none">
<path d="M347 901 c-115 -38 -206 -117 -261 -226 -131 -261 34 -577 328 -628
111 -19 246 16 343 90 56 43 120 137 143 210 66 215 -33 440 -236 535 -88 41
-226 49 -317 19z m213 -1 c126 -24 248 -117 304 -231 102 -211 14 -465 -199
-570 -67 -33 -74 -34 -185 -34 -111 0 -118 1 -182 34 -127 63 -218 187 -236
319 -40 293 211 536 498 482z"/>
<path d="M454 845 c-9 -23 3 -45 26 -45 12 0 20 7 20 18 0 13 -2 14 -9 3 -5
-7 -14 -10 -20 -7 -18 11 -13 26 10 26 11 0 17 5 14 10 -9 15 -35 12 -41 -5z"/>
<path d="M384 828 c3 -13 6 -26 6 -30 0 -12 28 -10 35 2 4 6 -1 7 -12 4 -16
-5 -16 -4 1 10 20 16 20 16 0 16 -16 0 -17 2 -4 10 12 8 10 10 -9 10 -19 0
-22 -4 -17 -22z"/>
<path d="M525 823 c-17 -25 -17 -26 0 -19 10 3 24 1 31 -5 15 -12 17 -6 8 29
-8 29 -18 28 -39 -5z"/>
<path d="M352 823 c-2 -24 -16 -30 -27 -13 -3 6 -11 10 -18 10 -6 0 1 -12 15
-27 32 -32 41 -27 35 19 -2 19 -4 23 -5 11z"/>
<path d="M591 810 c-6 -18 -6 -30 0 -30 5 0 9 6 9 13 0 7 7 4 15 -7 17 -22 19
-21 30 14 7 22 6 23 -9 11 -14 -11 -16 -11 -16 2 0 29 -18 27 -29 -3z"/>
<path d="M415 771 c-61 -17 -87 -32 -134 -76 -123 -115 -126 -301 -7 -421 67
-66 129 -88 230 -82 79 5 118 22 177 75 65 58 93 124 93 213 0 88 -26 152 -84
210 -67 67 -192 104 -275 81z m173 -48 c47 -22 48 -31 2 -43 -22 -6 -55 -24
-72 -39 -27 -24 -32 -35 -33 -79 -1 -63 -7 -70 -26 -34 -49 97 -114 156 -144
132 -18 -15 -19 -34 -2 -52 25 -25 66 -124 87 -208 22 -88 41 -120 70 -120 28
0 46 31 60 100 16 78 34 117 58 124 32 10 72 60 85 107 l13 44 28 -56 c67
-138 15 -288 -121 -351 -56 -27 -73 -30 -127 -26 -107 9 -178 57 -221 151 -56
118 -15 262 93 329 77 47 174 55 250 21z m56 -90 c-13 -62 -26 -82 -63 -97
-44 -17 -55 -39 -80 -153 -11 -50 -22 -78 -31 -78 -8 0 -23 37 -40 100 -29
108 -54 165 -95 214 -40 47 -5 40 38 -8 35 -39 70 -116 82 -185 9 -46 17 -39
43 43 12 35 33 79 48 98 33 44 25 54 -10 12 -30 -35 -41 -34 -27 2 12 33 39
55 81 67 56 16 61 15 54 -15z"/>
<path d="M330 156 c0 -43 8 -45 40 -11 23 25 16 37 -8 13 -9 -9 -12 -8 -12 4
0 9 -4 20 -10 23 -6 4 -10 -8 -10 -29z"/>
<path d="M634 175 c7 -18 -5 -20 -22 -3 -9 9 -12 8 -12 -4 0 -25 11 -48 22
-48 6 0 7 7 4 16 -5 12 -1 14 16 8 17 -5 20 -3 15 11 -4 9 -7 21 -7 26 0 5 -5
9 -11 9 -6 0 -9 -7 -5 -15z"/>
<path d="M396 144 c-11 -30 -6 -44 17 -44 18 0 19 2 7 10 -12 8 -12 10 -1 10
11 0 11 3 1 15 -11 13 -10 14 4 9 9 -3 16 -1 16 5 0 17 -37 13 -44 -5z"/>
<path d="M538 130 c-4 -29 5 -40 17 -20 3 5 12 7 20 3 21 -7 19 11 -3 30 -25
23 -29 22 -34 -13z"/>
<path d="M467 143 c-13 -12 -7 -41 9 -47 21 -8 34 1 33 22 0 11 -3 12 -6 5 -6
-16 -33 -17 -33 -3 0 6 10 15 23 20 21 8 21 9 1 9 -11 1 -24 -2 -27 -6z"/>
</g>
</svg>
