 <svg  version="1.0" xmlns="http://www.w3.org/2000/svg"  width="96.000000pt" height="96.000000pt" viewBox="0 0 96.000000 96.000000"  preserveAspectRatio="xMidYMid meet">  <g transform="translate(0.000000,96.000000) scale(0.050000,-0.050000)" fill="#f5c211" stroke="none"> <path d="M748 1509 c-382 -141 -488 -667 -195 -961 277 -277 749 -197 926 156 235 471 -234 988 -731 805z m541 -264 c-19 -107 -62 -165 -132 -179 -72 -14 -102 -72 -148 -291 -51 -241 -86 -235 -151 25 -54 210 -102 324 -180 423 -87 110 -25 101 79 -12 62 -67 93 -126 127 -240 51 -175 61 -181 95 -66 14 47 47 130 74 185 40 82 42 91 9 50 -56 -70 -79 -32 -32 56 30 54 60 79 120 97 140 42 154 37 139 -48z"/> </g> </svg> 