 <svg  version="1.0" xmlns="http://www.w3.org/2000/svg"  width="96.000000pt" height="96.000000pt" viewBox="0 0 96.000000 96.000000"  preserveAspectRatio="xMidYMid meet">  <g transform="translate(0.000000,96.000000) scale(0.050000,-0.050000)" fill="#deddda" stroke="none"> <path d="M761 1485 c-303 -106 -450 -501 -300 -801 275 -551 1089 -360 1089 256 0 423 -384 688 -789 545z m252 -204 c8 -41 20 -55 41 -47 22 9 29 -1 26 -36 -12 -133 3 -327 22 -288 10 22 36 67 58 100 21 33 53 86 71 118 22 38 38 50 47 34 11 -16 26 -11 52 18 52 57 77 50 63 -20 -7 -33 -4 -60 7 -60 15 0 -37 -114 -141 -305 -10 -19 -26 -50 -35 -68 -8 -18 -45 -42 -82 -55 -49 -16 -79 -45 -110 -106 -52 -104 -53 -104 -102 -1 -22 45 -56 90 -75 99 -19 9 -51 24 -70 33 -19 9 -73 88 -119 175 -118 220 -115 215 -93 222 11 4 16 35 11 69 -9 57 -6 60 33 38 24 -12 43 -33 43 -47 1 -15 7 -13 19 5 10 17 22 26 26 20 4 -5 46 -70 93 -144 48 -74 88 -135 89 -135 2 0 4 72 6 160 2 116 12 168 35 191 18 18 32 45 32 60 0 53 41 30 53 -30z"/> </g> </svg> 