 <svg  version="1.0" xmlns="http://www.w3.org/2000/svg"  width="96.000000pt" height="96.000000pt" viewBox="0 0 96.000000 96.000000"  preserveAspectRatio="xMidYMid meet">  <g transform="translate(0.000000,96.000000) scale(0.050000,-0.050000)" fill="#2ec27e" stroke="none"> <path d="M767 1496 c-191 -62 -358 -281 -380 -498 -66 -639 830 -883 1105 -302 218 461 -233 958 -725 800z m393 -267 c95 -218 109 -561 24 -630 -125 -101 -418 -57 -461 71 -62 187 16 653 112 666 41 6 45 -1 45 -92 0 -103 20 -135 92 -147 53 -9 56 1 39 128 -26 195 63 198 149 4z"/> <path d="M1082 1250 c0 -22 12 -67 28 -100 l27 -60 -11 70 c-14 88 -45 150 -44 90z"/> <path d="M900 962 c0 -18 47 -42 82 -42 10 0 18 14 18 30 0 19 -19 30 -50 30 -27 0 -50 -8 -50 -18z"/> <path d="M820 880 c0 -22 13 -40 30 -40 17 0 30 18 30 40 0 22 -13 40 -30 40 -17 0 -30 -18 -30 -40z"/> <path d="M1053 907 c-22 -22 -15 -42 19 -55 46 -18 74 6 47 40 -26 31 -45 35 -66 15z"/> <path d="M1084 792 c-40 -21 -42 -29 -18 -49 23 -18 34 -17 53 6 38 46 17 71 -35 43z"/> <path d="M820 751 c0 -16 18 -39 40 -51 35 -19 40 -15 40 29 0 38 -11 51 -40 51 -22 0 -40 -13 -40 -29z"/> <path d="M949 711 c-37 -27 -37 -29 -3 -42 44 -17 79 11 57 46 -12 20 -24 19 -54 -4z"/> </g> </svg> 