 <svg  version="1.0" xmlns="http://www.w3.org/2000/svg"  width="96.000000pt" height="96.000000pt" viewBox="0 0 96.000000 96.000000"  preserveAspectRatio="xMidYMid meet">  <g transform="translate(0.000000,96.000000) scale(0.050000,-0.050000)" fill="#f6d32d" stroke="none"> <path d="M684 1479 c-569 -284 -318 -1151 316 -1094 299 27 529 277 528 574 -2 440 -451 716 -844 520z m562 -232 c94 -106 97 -117 54 -173 -61 -77 -56 -199 8 -183 131 33 44 -124 -112 -203 -97 -49 -106 -50 -228 -26 -122 24 -130 23 -174 -18 -62 -59 -66 -57 -116 40 -34 66 -38 91 -20 120 37 59 27 213 -18 270 -43 55 -43 52 60 181 l50 63 216 1 215 1 65 -73z"/> <path d="M811 1202 c-39 -85 -30 -122 29 -122 38 0 46 17 70 135 20 100 -53 90 -99 -13z"/> <path d="M1030 1230 c5 -27 15 -72 20 -100 11 -52 75 -70 101 -28 23 36 -53 178 -94 178 -30 0 -36 -11 -27 -50z"/> <path d="M737 1026 c-11 -13 -18 -54 -15 -90 4 -37 0 -76 -7 -88 -27 -44 12 -46 69 -5 64 45 115 44 306 -10 121 -35 124 -31 115 107 l-8 110 -220 0 c-147 0 -227 -8 -240 -24z"/> </g> </svg> 