 <svg  version="1.0" xmlns="http://www.w3.org/2000/svg"  width="96.000000pt" height="96.000000pt" viewBox="0 0 96.000000 96.000000"  preserveAspectRatio="xMidYMid meet">  <g transform="translate(0.000000,96.000000) scale(0.050000,-0.050000)" fill="#f6d32d" stroke="none"> <path d="M730 1473 c-383 -179 -457 -690 -140 -969 351 -309 907 -88 962 382 51 435 -423 774 -822 587z m476 -278 c-6 -47 -22 -110 -37 -140 l-26 -55 84 0 c157 -1 155 -28 -22 -215 -78 -82 -183 -58 -241 55 -25 50 -40 72 -33 50 70 -213 87 -408 37 -424 -15 -5 -23 31 -24 103 -1 182 -19 227 -102 270 -109 56 -107 51 -188 326 -26 86 -25 95 4 95 80 0 196 -50 255 -109 l65 -65 20 57 c47 135 223 179 208 52z"/> </g> </svg> 